<svg xmlns="http://www.w3.org/2000/svg" viewBox="0 0 512 512">
  <rect width="512" height="512" rx="128" fill="#10b981"/>
  <path d="M160 256c0-17.7 14.3-32 32-32s32 14.3 32 32-14.3 32-32 32-32-14.3-32-32zm96 0c0-17.7 14.3-32 32-32s32 14.3 32 32-14.3 32-32 32-32-14.3-32-32zm96 0c0-17.7 14.3-32 32-32s32 14.3 32 32-14.3 32-32 32-32-14.3-32-32zM128 160c-35.3 0-64 28.7-64 64v96c0 35.3 28.7 64 64 64h22.4l35.8 47.7c8.5 11.3 25.4 11.3 33.9 0l35.8-47.7H384c35.3 0 64-28.7 64-64v-96c0-35.3-28.7-64-64-64H128z" fill="#09090b"/>
</svg>
